<?xml version="1.0" encoding="utf-8"?>
<!-- Generator: Adobe Illustrator 16.0.4, SVG Export Plug-In . SVG Version: 6.00 Build 0)  -->
<!DOCTYPE svg PUBLIC "-//W3C//DTD SVG 1.1//EN" "http://www.w3.org/Graphics/SVG/1.1/DTD/svg11.dtd">
<svg version="1.1" id="レイヤー_1" xmlns="http://www.w3.org/2000/svg" xmlns:xlink="http://www.w3.org/1999/xlink" x="0px"
	 y="0px" width="527px" height="152px" viewBox="0 0 527 152" enable-background="new 0 0 527 152" xml:space="preserve">
<path fill="#FFFFFF" d="M22.846,92.456c2.025,1.646,4.098,2.976,6.221,3.987c2.119,1.014,4.572,1.52,7.357,1.52
	c3.039,0,5.318-0.696,6.836-2.089c1.52-1.392,2.279-3.101,2.279-5.128c0-1.201-0.316-2.246-0.949-3.133
	c-0.633-0.886-1.439-1.662-2.422-2.326c-0.98-0.665-2.104-1.249-3.369-1.757c-1.268-0.506-2.533-1.012-3.799-1.52
	c-1.646-0.569-3.293-1.218-4.938-1.946c-1.646-0.727-3.119-1.614-4.416-2.658c-1.297-1.045-2.357-2.263-3.18-3.656
	c-0.824-1.392-1.234-3.069-1.234-5.032c0-1.835,0.363-3.561,1.092-5.175c0.727-1.614,1.771-3.006,3.133-4.178
	c1.361-1.171,3.021-2.089,4.984-2.754c1.963-0.664,4.178-0.997,6.646-0.997c2.912,0,5.586,0.508,8.023,1.52
	c2.438,1.014,4.543,2.248,6.314,3.703l-3.703,4.938c-1.582-1.202-3.229-2.184-4.938-2.943s-3.576-1.14-5.602-1.14
	c-2.912,0-5.049,0.665-6.408,1.994c-1.363,1.329-2.043,2.881-2.043,4.652c0,1.077,0.285,2.011,0.855,2.801
	c0.57,0.793,1.33,1.488,2.279,2.089c0.949,0.603,2.041,1.14,3.275,1.614c1.234,0.476,2.516,0.966,3.846,1.472
	c1.645,0.634,3.307,1.299,4.984,1.994c1.676,0.697,3.182,1.567,4.51,2.611c1.33,1.045,2.422,2.326,3.277,3.846
	c0.854,1.52,1.281,3.355,1.281,5.507c0,1.899-0.365,3.672-1.092,5.317c-0.729,1.647-1.805,3.103-3.229,4.368
	c-1.424,1.267-3.197,2.264-5.318,2.991c-2.121,0.727-4.543,1.092-7.264,1.092c-3.291,0-6.426-0.603-9.4-1.805
	c-2.975-1.201-5.57-2.721-7.785-4.558L22.846,92.456z"/>
<path fill="#FFFFFF" d="M81.146,106.793v15.572h-7.787V56.754h6.457l0.664,5.317h0.285c2.09-1.771,4.383-3.291,6.885-4.558
	c2.5-1.266,5.111-1.899,7.834-1.899c2.975,0,5.602,0.555,7.881,1.662c2.277,1.108,4.178,2.691,5.697,4.747
	c1.518,2.058,2.672,4.526,3.465,7.406c0.791,2.882,1.188,6.125,1.188,9.732c0,3.926-0.539,7.423-1.615,10.492
	c-1.076,3.071-2.531,5.683-4.367,7.834c-1.836,2.152-3.957,3.783-6.361,4.89c-2.406,1.107-4.938,1.662-7.598,1.662
	c-2.152,0-4.289-0.475-6.408-1.425c-2.121-0.949-4.258-2.246-6.41-3.893L81.146,106.793z M81.146,92.646
	c2.088,1.773,4.113,3.023,6.076,3.751c1.961,0.729,3.703,1.092,5.223,1.092c1.898,0,3.656-0.428,5.27-1.282s3.006-2.056,4.178-3.608
	c1.17-1.55,2.09-3.465,2.754-5.744c0.664-2.278,0.996-4.843,0.996-7.691c0-2.53-0.223-4.842-0.664-6.931
	c-0.443-2.09-1.156-3.877-2.137-5.365c-0.982-1.486-2.248-2.643-3.797-3.466c-1.553-0.822-3.404-1.234-5.555-1.234
	c-1.963,0-3.941,0.539-5.936,1.614c-1.994,1.077-4.131,2.628-6.408,4.652V92.646z"/>
<path fill="#FFFFFF" d="M131.373,90.937c0-5.063,2.264-8.94,6.789-11.632c4.525-2.689,11.727-4.572,21.602-5.649
	c0-1.455-0.143-2.88-0.426-4.272c-0.285-1.392-0.793-2.626-1.52-3.703c-0.729-1.076-1.695-1.947-2.896-2.611
	c-1.203-0.665-2.754-0.997-4.652-0.997c-2.723,0-5.238,0.507-7.549,1.52c-2.312,1.013-4.385,2.152-6.219,3.418l-3.135-5.412
	c2.152-1.392,4.779-2.737,7.881-4.036c3.102-1.296,6.52-1.946,10.256-1.946c5.633,0,9.717,1.726,12.248,5.175
	c2.531,3.451,3.799,8.057,3.799,13.815V102.9h-6.457l-0.664-5.507h-0.191c-2.215,1.836-4.604,3.403-7.168,4.7
	c-2.564,1.296-5.27,1.946-8.119,1.946c-3.926,0-7.168-1.14-9.732-3.419C132.656,98.343,131.373,95.114,131.373,90.937z
	 M139.064,90.367c0,2.658,0.775,4.558,2.326,5.696c1.551,1.14,3.467,1.71,5.746,1.71c2.215,0,4.32-0.522,6.312-1.567
	c1.994-1.044,4.1-2.578,6.314-4.604V78.782c-3.861,0.508-7.121,1.108-9.779,1.805c-2.658,0.697-4.795,1.52-6.41,2.469
	c-1.613,0.949-2.77,2.041-3.465,3.275C139.412,87.565,139.064,88.911,139.064,90.367z"/>
<path fill="#FFFFFF" d="M191.764,56.754h6.457l0.664,8.355h0.285c1.58-2.91,3.496-5.222,5.744-6.932
	c2.246-1.709,4.699-2.563,7.359-2.563c1.834,0,3.48,0.317,4.938,0.949l-1.52,6.837c-0.76-0.252-1.457-0.442-2.09-0.569
	c-0.633-0.126-1.424-0.19-2.373-0.19c-1.963,0-4.004,0.793-6.125,2.374c-2.121,1.583-3.973,4.337-5.555,8.261V102.9h-7.785V56.754z"
	/>
<path fill="#FFFFFF" d="M238.004,35.295h7.691v45.767h0.283l19.656-24.308h8.641L258.797,75.27l17.566,27.631h-8.545l-13.482-22.219
	l-8.641,10.064V102.9h-7.691V35.295z"/>
<path fill="#FFFFFF" d="M306.084,106.793v15.572h-7.787V56.754h6.457l0.664,5.317h0.285c2.09-1.771,4.383-3.291,6.885-4.558
	c2.5-1.266,5.111-1.899,7.834-1.899c2.975,0,5.602,0.555,7.881,1.662c2.277,1.108,4.178,2.691,5.697,4.747
	c1.518,2.058,2.672,4.526,3.465,7.406c0.791,2.882,1.188,6.125,1.188,9.732c0,3.926-0.539,7.423-1.615,10.492
	c-1.076,3.071-2.531,5.683-4.367,7.834c-1.836,2.152-3.957,3.783-6.361,4.89c-2.406,1.107-4.938,1.662-7.598,1.662
	c-2.152,0-4.289-0.475-6.408-1.425c-2.121-0.949-4.258-2.246-6.41-3.893L306.084,106.793z M306.084,92.646
	c2.088,1.773,4.113,3.023,6.076,3.751c1.961,0.729,3.703,1.092,5.223,1.092c1.898,0,3.656-0.428,5.27-1.282s3.006-2.056,4.178-3.608
	c1.17-1.55,2.09-3.465,2.754-5.744c0.664-2.278,0.996-4.843,0.996-7.691c0-2.53-0.223-4.842-0.664-6.931
	c-0.443-2.09-1.156-3.877-2.137-5.365c-0.982-1.486-2.248-2.643-3.797-3.466c-1.553-0.822-3.404-1.234-5.555-1.234
	c-1.963,0-3.941,0.539-5.936,1.614c-1.994,1.077-4.131,2.628-6.408,4.652V92.646z"/>
<path fill="#FFFFFF" d="M404.926,56.754h7.881v28.2c0,4.368,0.68,7.518,2.043,9.448c1.359,1.932,3.561,2.896,6.598,2.896
	c2.406,0,4.525-0.617,6.363-1.852c1.834-1.234,3.859-3.212,6.076-5.935V56.754h7.787V102.9h-6.457l-0.666-7.217h-0.283
	c-2.154,2.533-4.416,4.559-6.789,6.077c-2.375,1.52-5.176,2.279-8.404,2.279c-4.938,0-8.531-1.52-10.777-4.558
	c-2.248-3.039-3.371-7.532-3.371-13.483V56.754z"/>
<path fill="#FFFFFF" d="M463.227,111.73c0-1.962,0.602-3.83,1.805-5.602c1.201-1.773,2.848-3.386,4.938-4.843v-0.38
	c-1.141-0.695-2.105-1.661-2.896-2.896c-0.793-1.234-1.188-2.769-1.188-4.605c0-1.961,0.537-3.671,1.615-5.128
	c1.074-1.455,2.215-2.595,3.418-3.418v-0.38c-1.52-1.266-2.896-2.958-4.131-5.08c-1.234-2.12-1.852-4.572-1.852-7.358
	c0-2.531,0.459-4.81,1.377-6.837c0.916-2.024,2.168-3.75,3.75-5.175c1.582-1.424,3.434-2.516,5.555-3.275s4.352-1.14,6.695-1.14
	c1.266,0,2.451,0.111,3.561,0.333c1.105,0.222,2.104,0.49,2.99,0.807h16.047v5.981h-9.494c1.074,1.077,1.977,2.438,2.705,4.083
	c0.727,1.647,1.092,3.451,1.092,5.413c0,2.469-0.443,4.699-1.328,6.693c-0.889,1.994-2.09,3.672-3.609,5.033
	s-3.309,2.421-5.365,3.181s-4.258,1.139-6.598,1.139c-1.141,0-2.312-0.142-3.514-0.427c-1.203-0.285-2.344-0.68-3.418-1.187
	c-0.824,0.697-1.52,1.472-2.09,2.326s-0.854,1.915-0.854,3.181c0,1.457,0.568,2.658,1.709,3.608
	c1.139,0.949,3.291,1.424,6.457,1.424h8.924c5.381,0,9.416,0.871,12.107,2.611c2.689,1.742,4.035,4.541,4.035,8.403
	c0,2.151-0.539,4.192-1.613,6.124c-1.078,1.931-2.629,3.623-4.654,5.08c-2.025,1.455-4.479,2.611-7.357,3.466
	c-2.881,0.854-6.125,1.282-9.732,1.282c-2.85,0-5.445-0.271-7.787-0.808c-2.342-0.538-4.354-1.346-6.029-2.421
	c-1.678-1.077-2.977-2.374-3.893-3.894C463.686,115.529,463.227,113.756,463.227,111.73z M470.062,110.687
	c0,2.469,1.188,4.43,3.561,5.887c2.375,1.456,5.65,2.185,9.828,2.185c2.215,0,4.225-0.271,6.029-0.808
	c1.805-0.538,3.338-1.234,4.605-2.089c1.266-0.854,2.246-1.852,2.943-2.991c0.695-1.14,1.045-2.312,1.045-3.513
	c0-2.153-0.793-3.642-2.375-4.463c-1.582-0.823-3.893-1.234-6.932-1.234h-7.975c-0.887,0-1.852-0.048-2.896-0.143
	s-2.074-0.301-3.086-0.617c-1.646,1.202-2.848,2.469-3.607,3.798S470.062,109.357,470.062,110.687z M482.312,83.056
	c1.328,0,2.578-0.252,3.75-0.76c1.17-0.506,2.215-1.234,3.133-2.184c0.918-0.95,1.629-2.104,2.137-3.466
	c0.506-1.36,0.76-2.896,0.76-4.605c0-3.418-0.949-6.061-2.848-7.929c-1.9-1.866-4.211-2.801-6.932-2.801
	c-2.723,0-5.033,0.935-6.932,2.801c-1.9,1.868-2.85,4.511-2.85,7.929c0,1.709,0.252,3.245,0.76,4.605
	c0.506,1.361,1.219,2.516,2.137,3.466c0.916,0.949,1.961,1.678,3.133,2.184C479.732,82.804,480.982,83.056,482.312,83.056z"/>
<path fill="#FFFFFF" d="M377.412,90.502c0,0,2.588-2.74,2.588-3.015V77.075l1-0.822v-5.754l-0.65-0.548c0,0-0.085-1.045-0.975-2.192
	c-0.69-0.891-0.812-0.667-1.625-1.096l-1.625-0.273c0,0,0.25-17.263-0.075-17.537c-0.325-0.273-1.05-0.273-1.05-0.273v-1.713
	l1.05-0.205c0,0,0.288-0.822-0.038-1.37c-0.203-0.343-1.012-0.471-1.012-0.52v-1.467l1.05-0.206c0,0,0.288-0.822-0.038-1.37
	c-0.203-0.343-1.012-0.471-1.012-0.52v-1.467l1.05-0.205c0,0,0.288-0.822-0.038-1.37c-0.203-0.343-1.012-0.472-1.012-0.52v-1.398
	l0.725-0.822c0,0,0.25-1.37-0.4-2.192c-0.648-0.821-3.324-0.821-3.324-0.821v-3.288c0,0-1.188-1.079-1.188-2.467
	c0-1.216,1.355-2.191,1.355-2.191s0.843-1.701-0.296-3.836c-0.976-1.827-3.886-1.645-3.886-1.645s-2.918-0.183-3.894,1.645
	c-1.139,2.135-0.321,3.836-0.321,3.836s1.414,0.976,1.414,2.191c0,1.388-1.186,2.467-1.186,2.467v3.288c0,0-2.713,0-3.362,0.821
	c-0.65,0.822-0.306,2.192-0.306,2.192L361,36.249v1.398c0,0.048-0.847,0.177-1.05,0.52c-0.325,0.548,0.038,1.37,0.038,1.37
	L361,39.742v1.467c0,0.049-0.847,0.177-1.05,0.52c-0.325,0.548,0.038,1.37,0.038,1.37L361,43.305v1.467
	c0,0.049-0.847,0.177-1.05,0.52c-0.325,0.548,0.038,1.37,0.038,1.37L361,46.866v1.713c0,0-0.725,0-1.05,0.273
	c-0.325,0.274-0.038,17.537-0.038,17.537l-1.644,0.273c-0.812,0.429-0.943,0.205-1.634,1.096c-0.89,1.147-0.979,2.192-0.979,2.192
	L355,70.499v5.754l1,0.822v10.412c0,0.274,3,3.015,3,3.015v12.604c0,0.736,3.324,1.337,5.389,1.469l1.199,2.436
	c0.373,0.645,0.515,1.027,2.465,1.027s2.119-0.383,2.492-1.027l1.293-2.436c1.119-0.071,2.658-0.281,3.843-0.575
	c-0.13,1.156-0.613,2.774-2.068,4.049c-2.678,2.345-7.612,2.086-7.612,2.086V112h3.264c0,0,3.623,0.016,6.155-2.832
	c2.154-2.697,2.003-4.608,2.003-6.559L377.412,90.502z"/>
<g>
</g>
<g>
</g>
<g>
</g>
<g>
</g>
<g>
</g>
<g>
</g>
</svg>
